<?xml version="1.0" encoding="utf-8"?>
<!-- Generator: Adobe Illustrator 21.0.0, SVG Export Plug-In . SVG Version: 6.00 Build 0)  -->
<svg version="1.1" id="Calque_1" xmlns="http://www.w3.org/2000/svg" xmlns:xlink="http://www.w3.org/1999/xlink" x="0px" y="0px"
	 viewBox="0 0 512 512" style="enable-background:new 0 0 512 512;" xml:space="preserve">
<style type="text/css">
	.st0{fill:#FFFFFF;}
</style>
<path class="st0" d="M278.4,271.7h-24.5L184.3,437h23.6l17.8-43h76.7l17.9,43h25L278.4,271.7z M233.1,375.4l32.1-81l30.5,81H233.1z"
	/>
<path class="st0" d="M133.7,271.7h-24.5L39.6,437h23.6l17.9-43h76.7l17.9,43h25L133.7,271.7z M88.4,375.4l32.1-81l30.4,81H88.4z"/>
<path class="st0" d="M406.1,79h-24.5l-69.6,165.3h23.6l17.9-43h76.7l17.8,43h25L406.1,79z M360.8,182.7l32-81l30.5,81H360.8z"/>
<path class="st0" d="M307.9,120.2c-0.5-31.1-25-44.4-56.5-44.4c-35.7,0-63,17.9-63,48.3c0,16.7,8.7,27.5,18.5,33.4
	c13,7.8,33,10.3,59.5,18.1c14.6,4.3,22,10.8,22,23.6c0,16.5-12.8,29.5-38.7,29.5c-26.3,0-39.6-9.6-39.8-32.7h-23.8v2.7
	c0,30.2,19.5,49.4,61.1,49.4c40.3,0,65-21.1,65-51.5c0-14.6-5.3-28.8-24.3-37.3c-10.8-4.8-25.9-8-46.7-13.3
	c-19-4.8-28.6-9.6-28.6-24.3c0-16.5,13.7-26.8,36.9-26.8c22,0,33.6,8.7,34.6,25.2H307.9z"/>
<polygon class="st0" points="63.5,79 63.5,244.3 169,244.3 169,224.1 86.4,224.1 86.4,169.2 163.3,169.2 163.3,150 86.4,150 
	86.4,98.5 167.2,98.5 167.2,79 "/>
</svg>
